cl1 = 0.2;
cl2 = 0.1;
Point(11) = {0, 0, 0, cl1};
Point(12) = {1, 0, 0, cl1};
Point(13) = {1, 1, 0, cl1};
Point(14) = {0, 1, 0, cl1};
Point(15) = {0, 0, 1, cl1};
Point(16) = {1, 0, 1, cl1};
Point(17) = {1, 1, 1, cl1};
Point(18) = {0, 1, 1, cl1};
Point(19) = {-0.5, 0.5, 0.5, cl2};
Point(20) = {0.15, 0.4, 0.8, cl2};
Point(21) = {0.4, -0.2, 0.8, cl2};
Point(22) = {0.3, 0.55, 0.2, cl2};
Point(23) = {0.6, 0.8, 0.1, cl2};
Point(24) = {0.9, 0.1, 0.6, cl2};
Point(25) = {0.9, 0.6, 0.2, cl2};
Point(26) = {1.2, 0.4, 0.1, cl2};
Line(1) = {15, 16};
Line(2) = {15, 18};
Line(3) = {15, 11};
Line(4) = {11, 14};
Line(5) = {14, 18};
Line(6) = {18, 17};
Line(7) = {12, 16};
Line(8) = {17, 16};
Line(9) = {13, 14};
Line(10) = {13, 17};
Line(11) = {11, 12};
Line(12) = {12, 13};
Line(28) = {19, 20};
Line(29) = {20, 21};
Line(30) = {20, 22};
Line(31) = {20, 23};
Line(32) = {24, 26};
Line(33) = {25, 24};
Line(34) = {25, 26};
Line Loop(14) = {11, 12, 9, -4};
Plane Surface(14) = {14};
Line Loop(16) = {3, 11, 7, -1};
Plane Surface(16) = {16};
Line Loop(18) = {3, 4, 5, -2};
Plane Surface(18) = {18};
Line Loop(20) = {1, -8, -6, -2};
Plane Surface(20) = {20};
Line Loop(22) = {8, -7, 12, 10};
Plane Surface(22) = {22};
Line Loop(24) = {9, 5, 6, -10};
Plane Surface(24) = {24};
Surface Loop(26) = {22, 20, 16, 18, 14, 24};
Volume(26) = {26};
Physical Volume(26) = {26};
Physical Line(27) = {1, 2, 3, 4, 5, 6, 7, 8, 9, 10, 11, 12};
Physical Line(35) = {28, 29, 30, 31, 32, 33, 34};
