<?xml version="1.0" encoding="UTF-8" standalone="no"?>
<!-- Generator: Adobe Illustrator 21.1.0, SVG Export Plug-In . SVG Version: 6.00 Build 0)  -->

<svg
   xmlns:dc="http://purl.org/dc/elements/1.1/"
   xmlns:cc="http://creativecommons.org/ns#"
   xmlns:rdf="http://www.w3.org/1999/02/22-rdf-syntax-ns#"
   xmlns:svg="http://www.w3.org/2000/svg"
   xmlns="http://www.w3.org/2000/svg"
   xmlns:sodipodi="http://sodipodi.sourceforge.net/DTD/sodipodi-0.dtd"
   xmlns:inkscape="http://www.inkscape.org/namespaces/inkscape"
   version="1.1"
   id="Vrstva_1"
   x="0px"
   y="0px"
   viewBox="0 0 585.48347 111.2"
   xml:space="preserve"
   inkscape:version="0.91 r13725"
   sodipodi:docname="flow123d-color-banner.svg"
   width="585.48346"
   height="111.2"><metadata
     id="metadata77"><rdf:RDF><cc:Work
         rdf:about=""><dc:format>image/svg+xml</dc:format><dc:type
           rdf:resource="http://purl.org/dc/dcmitype/StillImage" /><dc:title></dc:title></cc:Work></rdf:RDF></metadata><defs
     id="defs75" /><sodipodi:namedview
     pagecolor="#ffffff"
     bordercolor="#666666"
     borderopacity="1"
     objecttolerance="10"
     gridtolerance="10"
     guidetolerance="10"
     inkscape:pageopacity="0"
     inkscape:pageshadow="2"
     inkscape:window-width="1920"
     inkscape:window-height="1145"
     id="namedview73"
     showgrid="false"
     fit-margin-top="0"
     fit-margin-left="0"
     fit-margin-right="0"
     fit-margin-bottom="0"
     inkscape:zoom="0.5606491"
     inkscape:cx="-6.5976045"
     inkscape:cy="-296.26234"
     inkscape:window-x="0"
     inkscape:window-y="0"
     inkscape:window-maximized="1"
     inkscape:current-layer="Vrstva_1" /><style
     type="text/css"
     id="style3">
	.st0{fill-rule:evenodd;clip-rule:evenodd;fill:#1D71B8;}
	.st1{fill-rule:evenodd;clip-rule:evenodd;fill:#EF7D00;}
	.st2{fill:#1D71B8;}
	.st3{fill:#EF7D00;}
	.st4{fill:none;}
	.st5{fill:#FFFFFF;}
</style><polygon
     class="st0"
     points="84.8,345.8 185.1,326 145.8,237.2 "
     id="polygon5"
     style="clip-rule:evenodd;fill:#1d71b8;fill-rule:evenodd"
     transform="translate(-84.8,-236.4)" /><line
     class="st0"
     x1="63.399998"
     y1="0.60000002"
     x2="102.39999"
     y2="89.099998"
     id="line7"
     style="clip-rule:evenodd;fill:#1d71b8;fill-rule:evenodd" /><polyline
     class="st1"
     points="188.7,327.8 196.6,346.1 205.3,324.3 "
     id="polyline9"
     style="clip-rule:evenodd;fill:#ef7d00;fill-rule:evenodd"
     transform="translate(-84.8,-236.4)" /><polygon
     class="st1"
     points="88,347.6 194.5,347.2 186.1,328.4 "
     id="polygon11"
     style="clip-rule:evenodd;fill:#ef7d00;fill-rule:evenodd"
     transform="translate(-84.8,-236.4)" /><g
     id="g13"
     transform="matrix(1.5406349,0,0,1.5406349,-201.01063,-414.94141)"><path
       class="st2"
       d="m 229.2,323.3 -10.7,0 0,-48.2 32.7,0 -1.7,9 -20.3,0 0,10.2 19.3,0 -1.7,9 -17.6,0 0,20 z"
       id="path15"
       inkscape:connector-curvature="0"
       style="fill:#1d71b8" /><path
       class="st2"
       d="m 255.2,274.9 10.4,0 0,48.4 -10.4,0 0,-48.4 z"
       id="path17"
       inkscape:connector-curvature="0"
       style="fill:#1d71b8" /><path
       class="st2"
       d="m 288,288.2 c 3,0 5.6,0.3 7.7,0.8 2.1,0.5 3.9,1.4 5.2,2.7 1.3,1.3 2.3,2.9 2.9,5 0.6,2.1 0.9,4.7 0.9,7.8 l 0,3.6 c 0,3.1 -0.3,5.7 -0.9,7.7 -0.6,2.1 -1.6,3.8 -2.9,5 -1.3,1.3 -3,2.2 -5.2,2.7 -2.1,0.5 -4.7,0.8 -7.7,0.8 -3,0 -5.6,-0.3 -7.7,-0.8 -2.1,-0.5 -3.9,-1.4 -5.2,-2.7 -1.3,-1.3 -2.3,-2.9 -2.9,-5 -0.6,-2.1 -0.9,-4.7 -0.9,-7.7 l 0,-3.6 c 0,-3.1 0.3,-5.7 0.9,-7.8 0.6,-2.1 1.6,-3.8 2.9,-5 1.3,-1.3 3.1,-2.1 5.2,-2.7 2.1,-0.5 4.7,-0.8 7.7,-0.8 z m 6.3,16 c 0,-1.7 -0.1,-3 -0.3,-4.1 -0.2,-1 -0.5,-1.8 -1,-2.3 -0.5,-0.5 -1.1,-0.9 -1.9,-1.1 -0.8,-0.2 -1.8,-0.3 -3.1,-0.3 -1.3,0 -2.3,0.1 -3.1,0.3 -0.8,0.2 -1.4,0.6 -1.9,1.1 -0.5,0.5 -0.8,1.3 -1,2.3 -0.2,1 -0.3,2.4 -0.3,4.1 l 0,4.2 c 0,1.7 0.1,3.1 0.3,4.1 0.2,1 0.5,1.8 1,2.4 0.5,0.5 1.1,0.9 1.9,1.1 0.8,0.2 1.8,0.3 3.1,0.3 1.3,0 2.3,-0.1 3.1,-0.3 0.8,-0.2 1.4,-0.6 1.9,-1.1 0.5,-0.5 0.8,-1.3 1,-2.4 0.2,-1 0.3,-2.4 0.3,-4.1 l 0,-4.2 z"
       id="path19"
       inkscape:connector-curvature="0"
       style="fill:#1d71b8" /><path
       class="st2"
       d="m 341.9,312.6 5,-23.3 10,0 -9.9,34 -10,0 -5.1,-21.5 -5.2,21.5 -10.4,0 -9.8,-34 10.5,0 4.9,23.2 5.6,-23.2 8.9,0 5.5,23.3 z"
       id="path21"
       inkscape:connector-curvature="0"
       style="fill:#1d71b8" /><path
       class="st3"
       d="m 400.3,323.3 -25.4,0 1.6,-8 6.8,0 0,-28.3 -8.3,0 1.6,-8 17.2,0 0,36.3 8.1,0 -1.6,8 z"
       id="path23"
       inkscape:connector-curvature="0"
       style="fill:#ef7d00" /><path
       class="st3"
       d="m 419.6,307.3 c -0.7,0.3 -1.3,0.6 -1.8,1 -0.5,0.4 -0.8,0.8 -1.1,1.2 -0.3,0.5 -0.4,1.1 -0.6,1.7 -0.1,0.7 -0.2,1.5 -0.2,2.4 l 0,1.3 20.8,0 -1.5,8.4 -29.7,0 0,-7.7 c 0,-2.3 0.2,-4.2 0.5,-5.9 0.3,-1.6 0.9,-3.1 1.7,-4.3 0.8,-1.2 1.8,-2.3 3,-3.2 1.2,-0.9 2.7,-1.7 4.5,-2.5 l 7.2,-3.1 c 1.6,-0.7 2.6,-1.3 3.1,-1.9 0.5,-0.6 0.8,-1.7 0.8,-3.1 0,-1.6 -0.4,-2.7 -1.1,-3.4 -0.7,-0.6 -2,-0.9 -3.9,-0.9 -2.1,0 -4.6,0 -7.3,0 -2.8,0 -5.3,0.1 -7.7,0.1 l 1.4,-8.3 c 2.2,0 4.6,-0.1 7.2,-0.1 2.6,0 5.1,0 7.3,0 5.1,0 8.8,1 11,2.9 2.2,2 3.3,4.8 3.3,8.4 l 0,1 c 0,3 -0.7,5.5 -2,7.5 -1.3,2 -3.5,3.7 -6.6,4.9 l -8.3,3.6 z"
       id="path25"
       inkscape:connector-curvature="0"
       style="fill:#ef7d00" /><path
       class="st3"
       d="m 443,279 c 2.2,0 4.5,-0.1 6.9,-0.1 2.4,0 5.1,0 8,0 4.6,0 8,1 10.2,3 2.2,2 3.3,4.6 3.3,8 l 0,1.2 c 0,2.4 -0.4,4.3 -1.3,5.7 -0.8,1.4 -2.2,2.5 -4,3.4 2.1,0.8 3.6,1.9 4.7,3.5 1,1.5 1.5,3.6 1.5,6.2 l 0,1.4 c 0,4 -1.3,7 -3.8,9.1 -2.6,2.1 -6.6,3.1 -12.2,3.1 -2.7,0 -5.4,0 -8,0 -2.6,0 -5.2,0 -7.8,-0.1 l 1.6,-8.2 c 1.9,0 4.1,0.1 6.6,0.1 2.5,0 5.1,0 7.8,0 1.9,0 3.2,-0.4 4,-1.1 0.8,-0.7 1.2,-1.9 1.2,-3.5 l 0,-1 c 0,-1.7 -0.4,-2.9 -1.3,-3.6 -0.8,-0.7 -2.3,-1.1 -4.3,-1.1 l -12.3,0 1.5,-8 10.7,0 c 3.3,0 4.9,-1.4 4.9,-4.2 l 0,-1 c 0,-1.6 -0.4,-2.7 -1.1,-3.4 -0.8,-0.7 -2,-1.1 -3.8,-1.1 -2,0 -4.3,0 -6.8,0 -2.5,0 -5,0 -7.6,0.1 L 443,279 Z"
       id="path27"
       inkscape:connector-curvature="0"
       style="fill:#ef7d00" /><path
       class="st3"
       d="m 493.6,323.3 c -3.2,0 -5.9,-0.3 -8,-0.8 -2.1,-0.5 -3.8,-1.4 -5.1,-2.7 -1.3,-1.3 -2.2,-2.9 -2.7,-4.9 -0.5,-2 -0.8,-4.5 -0.8,-7.5 l 0,-3 c 0,-3 0.3,-5.5 0.9,-7.5 0.6,-2.1 1.5,-3.7 2.7,-5 1.2,-1.3 2.8,-2.2 4.7,-2.8 1.9,-0.6 4.1,-0.9 6.7,-0.9 1.6,0 3.2,0.2 4.7,0.5 1.5,0.3 2.6,0.8 3.4,1.4 l 0,-15.2 10.4,0 0,41.7 c 0,2.5 -0.6,4.3 -1.7,5.2 -1.1,1 -3,1.5 -5.8,1.5 l -9.4,0 z m 6.5,-8.1 0,-12.1 c 0,-1.4 -0.1,-2.5 -0.3,-3.4 -0.2,-0.9 -0.5,-1.6 -1,-2.1 -0.5,-0.5 -1.2,-0.8 -2,-1 -0.8,-0.2 -1.8,-0.3 -3,-0.3 -1.3,0 -2.3,0.1 -3.1,0.3 -0.8,0.2 -1.4,0.6 -1.9,1.2 -0.5,0.6 -0.8,1.3 -0.9,2.3 -0.1,1 -0.3,2.3 -0.3,3.9 l 0,3.1 c 0,1.7 0.1,3 0.3,4.1 0.2,1 0.5,1.8 0.9,2.4 0.5,0.6 1.1,1 1.9,1.2 0.8,0.2 1.9,0.3 3.1,0.3 l 6.3,0 z"
       id="path29"
       inkscape:connector-curvature="0"
       style="fill:#ef7d00" /></g><g
     id="g31"
     transform="translate(-84.8,-236.4)"><polygon
       class="st4"
       points="127.9,321.5 127.8,321.5 127.9,321.5 "
       id="polygon33"
       style="fill:none" /><polygon
       class="st5"
       points="148.5,323.1 147.3,310.2 116,316.4 108,331.3 "
       id="polygon35"
       style="fill:#ffffff" /></g><g
     id="g37"
     transform="translate(-84.8,-236.4)"><path
       class="st4"
       d="M 153.1,257.9"
       id="path39"
       inkscape:connector-curvature="0"
       style="fill:none" /><polygon
       class="st4"
       points="154.7,269.9 154.7,269.9 154.7,269.9 "
       id="polygon41"
       style="fill:none" /><polygon
       class="st5"
       points="144.9,280.2 143.8,266.8 143.6,265.4 134.6,282.2 "
       id="polygon43"
       style="fill:#ffffff" /></g><polygon
     class="st0"
     points="187.6,325.6 205,322 148,236.4 "
     id="polygon45"
     style="clip-rule:evenodd;fill:#1d71b8;fill-rule:evenodd"
     transform="translate(-84.8,-236.4)" /><g
     id="g65"
     transform="translate(-84.8,-236.4)"><path
       class="st4"
       d="M 138.4,283.8"
       id="path67"
       inkscape:connector-curvature="0"
       style="fill:none" /><polygon
       class="st4"
       points="140,295.8 140,295.8 140,295.8 "
       id="polygon69"
       style="fill:none" /><polygon
       class="st5"
       points="146.5,300.9 145.4,288.2 129.7,291.5 121.8,306.1 "
       id="polygon71"
       style="fill:#ffffff" /></g></svg>