<?xml version="1.0" encoding="utf-8"?>
<!-- Generator: Adobe Illustrator 21.1.0, SVG Export Plug-In . SVG Version: 6.00 Build 0)  -->
<svg version="1.1" id="Vrstva_1" xmlns="http://www.w3.org/2000/svg" xmlns:xlink="http://www.w3.org/1999/xlink" x="0px" y="0px"
	 viewBox="0 0 595.3 595.3" style="enable-background:new 0 0 595.3 595.3;" xml:space="preserve">
<style type="text/css">
	.st0{fill-rule:evenodd;clip-rule:evenodd;fill:#1D71B8;}
	.st1{fill-rule:evenodd;clip-rule:evenodd;fill:#EF7D00;}
	.st2{fill:#1D71B8;}
	.st3{fill:#EF7D00;}
	.st4{fill:none;}
	.st5{fill:#FFFFFF;}
</style>
<polygon class="st0" points="84.8,345.8 185.1,326 145.8,237.2 "/>
<line class="st0" x1="148.2" y1="237" x2="187.2" y2="325.5"/>
<polyline class="st1" points="188.7,327.8 196.6,346.1 205.3,324.3 "/>
<polygon class="st1" points="88,347.6 194.5,347.2 186.1,328.4 "/>
<g>
	<path class="st2" d="M229.2,323.3h-10.7v-48.2h32.7l-1.7,9h-20.3v10.2h19.3l-1.7,9h-17.6V323.3z"/>
	<path class="st2" d="M255.2,274.9h10.4v48.4h-10.4V274.9z"/>
	<path class="st2" d="M288,288.2c3,0,5.6,0.3,7.7,0.8c2.1,0.5,3.9,1.4,5.2,2.7c1.3,1.3,2.3,2.9,2.9,5c0.6,2.1,0.9,4.7,0.9,7.8v3.6
		c0,3.1-0.3,5.7-0.9,7.7c-0.6,2.1-1.6,3.8-2.9,5c-1.3,1.3-3,2.2-5.2,2.7c-2.1,0.5-4.7,0.8-7.7,0.8c-3,0-5.6-0.3-7.7-0.8
		c-2.1-0.5-3.9-1.4-5.2-2.7c-1.3-1.3-2.3-2.9-2.9-5c-0.6-2.1-0.9-4.7-0.9-7.7v-3.6c0-3.1,0.3-5.7,0.9-7.8c0.6-2.1,1.6-3.8,2.9-5
		c1.3-1.3,3.1-2.1,5.2-2.7C282.4,288.5,285,288.2,288,288.2z M294.3,304.2c0-1.7-0.1-3-0.3-4.1c-0.2-1-0.5-1.8-1-2.3
		c-0.5-0.5-1.1-0.9-1.9-1.1c-0.8-0.2-1.8-0.3-3.1-0.3c-1.3,0-2.3,0.1-3.1,0.3c-0.8,0.2-1.4,0.6-1.9,1.1c-0.5,0.5-0.8,1.3-1,2.3
		c-0.2,1-0.3,2.4-0.3,4.1v4.2c0,1.7,0.1,3.1,0.3,4.1c0.2,1,0.5,1.8,1,2.4c0.5,0.5,1.1,0.9,1.9,1.1c0.8,0.2,1.8,0.3,3.1,0.3
		c1.3,0,2.3-0.1,3.1-0.3c0.8-0.2,1.4-0.6,1.9-1.1s0.8-1.3,1-2.4c0.2-1,0.3-2.4,0.3-4.1V304.2z"/>
	<path class="st2" d="M341.9,312.6l5-23.3h10l-9.9,34H337l-5.1-21.5l-5.2,21.5h-10.4l-9.8-34H317l4.9,23.2l5.6-23.2h8.9L341.9,312.6
		z"/>
	<path class="st3" d="M400.3,323.3h-25.4l1.6-8h6.8v-28.3H375l1.6-8h17.2v36.3h8.1L400.3,323.3z"/>
	<path class="st3" d="M419.6,307.3c-0.7,0.3-1.3,0.6-1.8,1s-0.8,0.8-1.1,1.2c-0.3,0.5-0.4,1.1-0.6,1.7c-0.1,0.7-0.2,1.5-0.2,2.4v1.3
		h20.8l-1.5,8.4h-29.7v-7.7c0-2.3,0.2-4.2,0.5-5.9c0.3-1.6,0.9-3.1,1.7-4.3c0.8-1.2,1.8-2.3,3-3.2c1.2-0.9,2.7-1.7,4.5-2.5l7.2-3.1
		c1.6-0.7,2.6-1.3,3.1-1.9c0.5-0.6,0.8-1.7,0.8-3.1c0-1.6-0.4-2.7-1.1-3.4c-0.7-0.6-2-0.9-3.9-0.9c-2.1,0-4.6,0-7.3,0
		c-2.8,0-5.3,0.1-7.7,0.1l1.4-8.3c2.2,0,4.6-0.1,7.2-0.1c2.6,0,5.1,0,7.3,0c5.1,0,8.8,1,11,2.9c2.2,2,3.3,4.8,3.3,8.4v1
		c0,3-0.7,5.5-2,7.5c-1.3,2-3.5,3.7-6.6,4.9L419.6,307.3z"/>
	<path class="st3" d="M443,279c2.2,0,4.5-0.1,6.9-0.1c2.4,0,5.1,0,8,0c4.6,0,8,1,10.2,3c2.2,2,3.3,4.6,3.3,8v1.2
		c0,2.4-0.4,4.3-1.3,5.7c-0.8,1.4-2.2,2.5-4,3.4c2.1,0.8,3.6,1.9,4.7,3.5c1,1.5,1.5,3.6,1.5,6.2v1.4c0,4-1.3,7-3.8,9.1
		c-2.6,2.1-6.6,3.1-12.2,3.1c-2.7,0-5.4,0-8,0c-2.6,0-5.2,0-7.8-0.1l1.6-8.2c1.9,0,4.1,0.1,6.6,0.1c2.5,0,5.1,0,7.8,0
		c1.9,0,3.2-0.4,4-1.1c0.8-0.7,1.2-1.9,1.2-3.5v-1c0-1.7-0.4-2.9-1.3-3.6c-0.8-0.7-2.3-1.1-4.3-1.1h-12.3l1.5-8H456
		c3.3,0,4.9-1.4,4.9-4.2v-1c0-1.6-0.4-2.7-1.1-3.4c-0.8-0.7-2-1.1-3.8-1.1c-2,0-4.3,0-6.8,0c-2.5,0-5,0-7.6,0.1L443,279z"/>
	<path class="st3" d="M493.6,323.3c-3.2,0-5.9-0.3-8-0.8c-2.1-0.5-3.8-1.4-5.1-2.7c-1.3-1.3-2.2-2.9-2.7-4.9c-0.5-2-0.8-4.5-0.8-7.5
		v-3c0-3,0.3-5.5,0.9-7.5c0.6-2.1,1.5-3.7,2.7-5c1.2-1.3,2.8-2.2,4.7-2.8c1.9-0.6,4.1-0.9,6.7-0.9c1.6,0,3.2,0.2,4.7,0.5
		c1.5,0.3,2.6,0.8,3.4,1.4v-15.2h10.4v41.7c0,2.5-0.6,4.3-1.7,5.2c-1.1,1-3,1.5-5.8,1.5H493.6z M500.1,315.2v-12.1
		c0-1.4-0.1-2.5-0.3-3.4c-0.2-0.9-0.5-1.6-1-2.1c-0.5-0.5-1.2-0.8-2-1c-0.8-0.2-1.8-0.3-3-0.3c-1.3,0-2.3,0.1-3.1,0.3
		c-0.8,0.2-1.4,0.6-1.9,1.2c-0.5,0.6-0.8,1.3-0.9,2.3s-0.3,2.3-0.3,3.9v3.1c0,1.7,0.1,3,0.3,4.1c0.2,1,0.5,1.8,0.9,2.4
		c0.5,0.6,1.1,1,1.9,1.2c0.8,0.2,1.9,0.3,3.1,0.3H500.1z"/>
</g>
<g>
	<polygon class="st4" points="127.9,321.5 127.8,321.5 127.9,321.5 	"/>
	<polygon class="st5" points="116,316.4 108,331.3 148.5,323.1 147.3,310.2 	"/>
</g>
<g>
	<path class="st4" d="M153.1,257.9"/>
	<polygon class="st4" points="154.7,269.9 154.7,269.9 154.7,269.9 	"/>
	<polygon class="st5" points="143.6,265.4 134.6,282.2 144.9,280.2 143.8,266.8 	"/>
</g>
<polygon class="st0" points="187.6,325.6 205,322 148,236.4 "/>
<g>
	<path class="st2" d="M229.2,323.3h-10.7v-48.2h32.7l-1.7,9h-20.3v10.2h19.3l-1.7,9h-17.6V323.3z"/>
	<path class="st2" d="M255.2,274.9h10.4v48.4h-10.4V274.9z"/>
	<path class="st2" d="M288,288.2c3,0,5.6,0.3,7.7,0.8c2.1,0.5,3.9,1.4,5.2,2.7c1.3,1.3,2.3,2.9,2.9,5c0.6,2.1,0.9,4.7,0.9,7.8v3.6
		c0,3.1-0.3,5.7-0.9,7.7c-0.6,2.1-1.6,3.8-2.9,5c-1.3,1.3-3,2.2-5.2,2.7c-2.1,0.5-4.7,0.8-7.7,0.8c-3,0-5.6-0.3-7.7-0.8
		c-2.1-0.5-3.9-1.4-5.2-2.7c-1.3-1.3-2.3-2.9-2.9-5c-0.6-2.1-0.9-4.7-0.9-7.7v-3.6c0-3.1,0.3-5.7,0.9-7.8c0.6-2.1,1.6-3.8,2.9-5
		c1.3-1.3,3.1-2.1,5.2-2.7C282.4,288.5,285,288.2,288,288.2z M294.3,304.2c0-1.7-0.1-3-0.3-4.1c-0.2-1-0.5-1.8-1-2.3
		c-0.5-0.5-1.1-0.9-1.9-1.1c-0.8-0.2-1.8-0.3-3.1-0.3c-1.3,0-2.3,0.1-3.1,0.3c-0.8,0.2-1.4,0.6-1.9,1.1c-0.5,0.5-0.8,1.3-1,2.3
		c-0.2,1-0.3,2.4-0.3,4.1v4.2c0,1.7,0.1,3.1,0.3,4.1c0.2,1,0.5,1.8,1,2.4c0.5,0.5,1.1,0.9,1.9,1.1c0.8,0.2,1.8,0.3,3.1,0.3
		c1.3,0,2.3-0.1,3.1-0.3c0.8-0.2,1.4-0.6,1.9-1.1s0.8-1.3,1-2.4c0.2-1,0.3-2.4,0.3-4.1V304.2z"/>
	<path class="st2" d="M341.9,312.6l5-23.3h10l-9.9,34H337l-5.1-21.5l-5.2,21.5h-10.4l-9.8-34H317l4.9,23.2l5.6-23.2h8.9L341.9,312.6
		z"/>
	<path class="st3" d="M400.3,323.3h-25.4l1.6-8h6.8v-28.3H375l1.6-8h17.2v36.3h8.1L400.3,323.3z"/>
	<path class="st3" d="M419.6,307.3c-0.7,0.3-1.3,0.6-1.8,1s-0.8,0.8-1.1,1.2c-0.3,0.5-0.4,1.1-0.6,1.7c-0.1,0.7-0.2,1.5-0.2,2.4v1.3
		h20.8l-1.5,8.4h-29.7v-7.7c0-2.3,0.2-4.2,0.5-5.9c0.3-1.6,0.9-3.1,1.7-4.3c0.8-1.2,1.8-2.3,3-3.2c1.2-0.9,2.7-1.7,4.5-2.5l7.2-3.1
		c1.6-0.7,2.6-1.3,3.1-1.9c0.5-0.6,0.8-1.7,0.8-3.1c0-1.6-0.4-2.7-1.1-3.4c-0.7-0.6-2-0.9-3.9-0.9c-2.1,0-4.6,0-7.3,0
		c-2.8,0-5.3,0.1-7.7,0.1l1.4-8.3c2.2,0,4.6-0.1,7.2-0.1c2.6,0,5.1,0,7.3,0c5.1,0,8.8,1,11,2.9c2.2,2,3.3,4.8,3.3,8.4v1
		c0,3-0.7,5.5-2,7.5c-1.3,2-3.5,3.7-6.6,4.9L419.6,307.3z"/>
	<path class="st3" d="M443,279c2.2,0,4.5-0.1,6.9-0.1c2.4,0,5.1,0,8,0c4.6,0,8,1,10.2,3c2.2,2,3.3,4.6,3.3,8v1.2
		c0,2.4-0.4,4.3-1.3,5.7c-0.8,1.4-2.2,2.5-4,3.4c2.1,0.8,3.6,1.9,4.7,3.5c1,1.5,1.5,3.6,1.5,6.2v1.4c0,4-1.3,7-3.8,9.1
		c-2.6,2.1-6.6,3.1-12.2,3.1c-2.7,0-5.4,0-8,0c-2.6,0-5.2,0-7.8-0.1l1.6-8.2c1.9,0,4.1,0.1,6.6,0.1c2.5,0,5.1,0,7.8,0
		c1.9,0,3.2-0.4,4-1.1c0.8-0.7,1.2-1.9,1.2-3.5v-1c0-1.7-0.4-2.9-1.3-3.6c-0.8-0.7-2.3-1.1-4.3-1.1h-12.3l1.5-8H456
		c3.3,0,4.9-1.4,4.9-4.2v-1c0-1.6-0.4-2.7-1.1-3.4c-0.8-0.7-2-1.1-3.8-1.1c-2,0-4.3,0-6.8,0c-2.5,0-5,0-7.6,0.1L443,279z"/>
	<path class="st3" d="M493.6,323.3c-3.2,0-5.9-0.3-8-0.8c-2.1-0.5-3.8-1.4-5.1-2.7c-1.3-1.3-2.2-2.9-2.7-4.9c-0.5-2-0.8-4.5-0.8-7.5
		v-3c0-3,0.3-5.5,0.9-7.5c0.6-2.1,1.5-3.7,2.7-5c1.2-1.3,2.8-2.2,4.7-2.8c1.9-0.6,4.1-0.9,6.7-0.9c1.6,0,3.2,0.2,4.7,0.5
		c1.5,0.3,2.6,0.8,3.4,1.4v-15.2h10.4v41.7c0,2.5-0.6,4.3-1.7,5.2c-1.1,1-3,1.5-5.8,1.5H493.6z M500.1,315.2v-12.1
		c0-1.4-0.1-2.5-0.3-3.4c-0.2-0.9-0.5-1.6-1-2.1c-0.5-0.5-1.2-0.8-2-1c-0.8-0.2-1.8-0.3-3-0.3c-1.3,0-2.3,0.1-3.1,0.3
		c-0.8,0.2-1.4,0.6-1.9,1.2c-0.5,0.6-0.8,1.3-0.9,2.3s-0.3,2.3-0.3,3.9v3.1c0,1.7,0.1,3,0.3,4.1c0.2,1,0.5,1.8,0.9,2.4
		c0.5,0.6,1.1,1,1.9,1.2c0.8,0.2,1.9,0.3,3.1,0.3H500.1z"/>
</g>
<g>
	<path class="st4" d="M138.4,283.8"/>
	<polygon class="st4" points="140,295.8 140,295.8 140,295.8 	"/>
	<polygon class="st5" points="129.7,291.5 121.8,306.1 146.5,300.9 145.4,288.2 	"/>
</g>
</svg>
