<?xml version="1.0" encoding="utf-8"?>
<!-- Generator: Adobe Illustrator 21.1.0, SVG Export Plug-In . SVG Version: 6.00 Build 0)  -->
<svg version="1.1" id="Vrstva_1" xmlns="http://www.w3.org/2000/svg" xmlns:xlink="http://www.w3.org/1999/xlink" x="0px" y="0px"
	 viewBox="0 0 841.9 595.3" style="enable-background:new 0 0 841.9 595.3;" xml:space="preserve">
<style type="text/css">
	.st0{fill-rule:evenodd;clip-rule:evenodd;fill:#1D71B8;}
	.st1{fill-rule:evenodd;clip-rule:evenodd;fill:#EF7D00;}
	.st2{fill:#1D71B8;}
	.st3{fill:#EF7D00;}
	.st4{fill:none;}
	.st5{fill:#FFFFFF;}
	.st6{fill-rule:evenodd;clip-rule:evenodd;}
	.st7{fill-rule:evenodd;clip-rule:evenodd;fill:#FFFFFF;}
</style>
<polygon class="st0" points="211.1,249.1 303.1,230.9 267,149.5 "/>
<line class="st0" x1="269.3" y1="149.3" x2="305" y2="230.4"/>
<polyline class="st1" points="306.4,232.6 313.7,249.3 321.6,229.4 "/>
<polygon class="st1" points="214.1,250.7 311.7,250.3 304,233.1 "/>
<g>
	<path class="st2" d="M343.5,228.4h-9.9v-44.2h30l-1.6,8.3h-18.6v9.3h17.7l-1.6,8.3h-16.2V228.4z"/>
	<path class="st2" d="M367.4,184.1h9.5v44.4h-9.5V184.1z"/>
	<path class="st2" d="M397.5,196.3c2.8,0,5.2,0.2,7.1,0.7c1.9,0.5,3.5,1.3,4.7,2.4c1.2,1.2,2.1,2.7,2.7,4.6c0.6,1.9,0.8,4.3,0.8,7.2
		v3.3c0,2.8-0.3,5.2-0.8,7.1c-0.6,1.9-1.4,3.4-2.7,4.6c-1.2,1.2-2.8,2-4.7,2.5c-2,0.5-4.3,0.7-7.1,0.7c-2.8,0-5.2-0.2-7.1-0.7
		c-2-0.5-3.5-1.3-4.8-2.5c-1.2-1.2-2.1-2.7-2.7-4.6c-0.6-1.9-0.8-4.3-0.8-7.1v-3.3c0-2.9,0.3-5.3,0.8-7.2c0.6-1.9,1.5-3.4,2.7-4.6
		c1.2-1.2,2.8-2,4.8-2.4C392.3,196.5,394.7,196.3,397.5,196.3z M403.2,210.9c0-1.6-0.1-2.8-0.2-3.7c-0.2-0.9-0.5-1.7-0.9-2.1
		c-0.4-0.5-1-0.8-1.8-1c-0.7-0.2-1.7-0.3-2.8-0.3c-1.2,0-2.1,0.1-2.8,0.3c-0.7,0.2-1.3,0.5-1.8,1c-0.4,0.5-0.7,1.2-0.9,2.1
		c-0.2,0.9-0.3,2.2-0.3,3.7v3.8c0,1.6,0.1,2.8,0.3,3.8c0.2,1,0.5,1.7,0.9,2.2c0.4,0.5,1,0.8,1.8,1c0.7,0.2,1.7,0.3,2.8,0.3
		c1.2,0,2.1-0.1,2.8-0.3c0.7-0.2,1.3-0.5,1.8-1c0.4-0.5,0.7-1.2,0.9-2.2c0.2-1,0.2-2.2,0.2-3.8V210.9z"/>
	<path class="st2" d="M446.9,218.6l4.6-21.4h9.2l-9.1,31.2h-9.3l-4.7-19.7l-4.8,19.7h-9.5l-9-31.2h9.6l4.5,21.3l5.1-21.3h8.2
		L446.9,218.6z"/>
	<path class="st3" d="M500.4,228.4h-23.3l1.4-7.3h6.2v-25.9h-7.6l1.4-7.3h15.8v33.3h7.5L500.4,228.4z"/>
	<path class="st3" d="M518.2,213.8c-0.7,0.3-1.2,0.6-1.7,0.9c-0.4,0.3-0.8,0.7-1,1.1c-0.2,0.4-0.4,1-0.5,1.6
		c-0.1,0.6-0.1,1.3-0.1,2.2v1.2h19.1l-1.4,7.7h-27.2v-7.1c0-2.1,0.2-3.9,0.5-5.4c0.3-1.5,0.8-2.8,1.6-4c0.7-1.1,1.6-2.1,2.8-2.9
		c1.1-0.8,2.5-1.6,4.1-2.3l6.6-2.9c1.4-0.6,2.4-1.2,2.9-1.8c0.5-0.6,0.7-1.5,0.7-2.8c0-1.5-0.3-2.5-1-3.1c-0.7-0.6-1.8-0.9-3.6-0.9
		c-2,0-4.2,0-6.7,0c-2.5,0-4.9,0.1-7.1,0.1l1.3-7.6c2,0,4.2-0.1,6.6-0.1c2.4,0,4.6,0,6.7,0c4.7,0,8.1,0.9,10.1,2.7
		c2,1.8,3,4.4,3,7.7v1c0,2.7-0.6,5-1.8,6.9c-1.2,1.9-3.2,3.4-6,4.5L518.2,213.8z"/>
	<path class="st3" d="M539.6,187.8c2,0,4.1-0.1,6.3-0.1c2.2,0,4.6,0,7.3,0c4.3,0,7.4,0.9,9.4,2.7c2,1.8,3,4.2,3,7.3v1.1
		c0,2.2-0.4,4-1.2,5.3c-0.8,1.3-2,2.3-3.7,3.1c1.9,0.7,3.3,1.8,4.3,3.2c0.9,1.4,1.4,3.3,1.4,5.6v1.3c0,3.7-1.2,6.4-3.5,8.3
		c-2.3,1.9-6.1,2.8-11.2,2.8c-2.5,0-4.9,0-7.3,0c-2.4,0-4.7,0-7.1-0.1l1.4-7.5c1.8,0,3.8,0.1,6.1,0.1c2.3,0,4.7,0,7.2,0
		c1.7,0,2.9-0.3,3.7-1c0.8-0.7,1.1-1.8,1.1-3.2v-0.9c0-1.6-0.4-2.7-1.2-3.3c-0.8-0.7-2.1-1-4-1h-11.3l1.4-7.3h9.7
		c3,0,4.5-1.3,4.5-3.8v-1c0-1.4-0.3-2.5-1-3.1c-0.7-0.7-1.9-1-3.5-1c-1.9,0-4,0-6.2,0c-2.3,0-4.6,0-7,0.1L539.6,187.8z"/>
	<path class="st3" d="M586,228.4c-2.9,0-5.4-0.2-7.3-0.7c-1.9-0.5-3.5-1.3-4.7-2.5c-1.2-1.2-2-2.7-2.5-4.5c-0.5-1.9-0.7-4.1-0.7-6.8
		v-2.7c0-2.7,0.3-5,0.8-6.9c0.5-1.9,1.4-3.4,2.5-4.6c1.1-1.2,2.5-2,4.3-2.6c1.7-0.5,3.8-0.8,6.1-0.8c1.5,0,2.9,0.2,4.3,0.5
		c1.3,0.3,2.4,0.8,3.1,1.3v-14h9.5v38.2c0,2.3-0.5,3.9-1.5,4.8c-1,0.9-2.8,1.3-5.3,1.3H586z M591.9,221v-11.1c0-1.3-0.1-2.3-0.3-3.1
		c-0.2-0.8-0.5-1.4-1-1.9c-0.5-0.5-1.1-0.8-1.8-0.9c-0.7-0.2-1.7-0.2-2.8-0.2c-1.2,0-2.1,0.1-2.8,0.3c-0.7,0.2-1.3,0.6-1.7,1.1
		c-0.4,0.5-0.7,1.2-0.9,2.1s-0.2,2.1-0.2,3.6v2.9c0,1.6,0.1,2.8,0.2,3.7c0.2,0.9,0.4,1.7,0.9,2.2c0.4,0.5,1,0.9,1.8,1.1
		c0.8,0.2,1.7,0.3,2.9,0.3H591.9z"/>
</g>
<g>
	<polygon class="st4" points="250.6,226.8 250.6,226.8 250.6,226.8 	"/>
	<polygon class="st5" points="239.7,222.1 232.4,235.8 269.5,228.2 268.4,216.5 	"/>
</g>
<g>
	<path class="st4" d="M273.8,168.4"/>
	<polygon class="st4" points="275.2,179.5 275.2,179.5 275.2,179.5 	"/>
	<polygon class="st5" points="265,175.3 256.7,190.8 266.2,188.9 265.2,176.6 	"/>
</g>
<polygon class="st0" points="305.4,230.5 321.3,227.3 269.1,148.7 "/>
<g>
	<path class="st2" d="M343.5,228.4h-9.9v-44.2h30l-1.6,8.3h-18.6v9.3h17.7l-1.6,8.3h-16.2V228.4z"/>
	<path class="st2" d="M367.4,184.1h9.5v44.4h-9.5V184.1z"/>
	<path class="st2" d="M397.5,196.3c2.8,0,5.2,0.2,7.1,0.7c1.9,0.5,3.5,1.3,4.7,2.4c1.2,1.2,2.1,2.7,2.7,4.6c0.6,1.9,0.8,4.3,0.8,7.2
		v3.3c0,2.8-0.3,5.2-0.8,7.1c-0.6,1.9-1.4,3.4-2.7,4.6c-1.2,1.2-2.8,2-4.7,2.5c-2,0.5-4.3,0.7-7.1,0.7c-2.8,0-5.2-0.2-7.1-0.7
		c-2-0.5-3.5-1.3-4.8-2.5c-1.2-1.2-2.1-2.7-2.7-4.6c-0.6-1.9-0.8-4.3-0.8-7.1v-3.3c0-2.9,0.3-5.3,0.8-7.2c0.6-1.9,1.5-3.4,2.7-4.6
		c1.2-1.2,2.8-2,4.8-2.4C392.3,196.5,394.7,196.3,397.5,196.3z M403.2,210.9c0-1.6-0.1-2.8-0.2-3.7c-0.2-0.9-0.5-1.7-0.9-2.1
		c-0.4-0.5-1-0.8-1.8-1c-0.7-0.2-1.7-0.3-2.8-0.3c-1.2,0-2.1,0.1-2.8,0.3c-0.7,0.2-1.3,0.5-1.8,1c-0.4,0.5-0.7,1.2-0.9,2.1
		c-0.2,0.9-0.3,2.2-0.3,3.7v3.8c0,1.6,0.1,2.8,0.3,3.8c0.2,1,0.5,1.7,0.9,2.2c0.4,0.5,1,0.8,1.8,1c0.7,0.2,1.7,0.3,2.8,0.3
		c1.2,0,2.1-0.1,2.8-0.3c0.7-0.2,1.3-0.5,1.8-1c0.4-0.5,0.7-1.2,0.9-2.2c0.2-1,0.2-2.2,0.2-3.8V210.9z"/>
	<path class="st2" d="M446.9,218.6l4.6-21.4h9.2l-9.1,31.2h-9.3l-4.7-19.7l-4.8,19.7h-9.5l-9-31.2h9.6l4.5,21.3l5.1-21.3h8.2
		L446.9,218.6z"/>
	<path class="st3" d="M500.4,228.4h-23.3l1.4-7.3h6.2v-25.9h-7.6l1.4-7.3h15.8v33.3h7.5L500.4,228.4z"/>
	<path class="st3" d="M518.2,213.8c-0.7,0.3-1.2,0.6-1.7,0.9c-0.4,0.3-0.8,0.7-1,1.1c-0.2,0.4-0.4,1-0.5,1.6
		c-0.1,0.6-0.1,1.3-0.1,2.2v1.2h19.1l-1.4,7.7h-27.2v-7.1c0-2.1,0.2-3.9,0.5-5.4c0.3-1.5,0.8-2.8,1.6-4c0.7-1.1,1.6-2.1,2.8-2.9
		c1.1-0.8,2.5-1.6,4.1-2.3l6.6-2.9c1.4-0.6,2.4-1.2,2.9-1.8c0.5-0.6,0.7-1.5,0.7-2.8c0-1.5-0.3-2.5-1-3.1c-0.7-0.6-1.8-0.9-3.6-0.9
		c-2,0-4.2,0-6.7,0c-2.5,0-4.9,0.1-7.1,0.1l1.3-7.6c2,0,4.2-0.1,6.6-0.1c2.4,0,4.6,0,6.7,0c4.7,0,8.1,0.9,10.1,2.7
		c2,1.8,3,4.4,3,7.7v1c0,2.7-0.6,5-1.8,6.9c-1.2,1.9-3.2,3.4-6,4.5L518.2,213.8z"/>
	<path class="st3" d="M539.6,187.8c2,0,4.1-0.1,6.3-0.1c2.2,0,4.6,0,7.3,0c4.3,0,7.4,0.9,9.4,2.7c2,1.8,3,4.2,3,7.3v1.1
		c0,2.2-0.4,4-1.2,5.3c-0.8,1.3-2,2.3-3.7,3.1c1.9,0.7,3.3,1.8,4.3,3.2c0.9,1.4,1.4,3.3,1.4,5.6v1.3c0,3.7-1.2,6.4-3.5,8.3
		c-2.3,1.9-6.1,2.8-11.2,2.8c-2.5,0-4.9,0-7.3,0c-2.4,0-4.7,0-7.1-0.1l1.4-7.5c1.8,0,3.8,0.1,6.1,0.1c2.3,0,4.7,0,7.2,0
		c1.7,0,2.9-0.3,3.7-1c0.8-0.7,1.1-1.8,1.1-3.2v-0.9c0-1.6-0.4-2.7-1.2-3.3c-0.8-0.7-2.1-1-4-1h-11.3l1.4-7.3h9.7
		c3,0,4.5-1.3,4.5-3.8v-1c0-1.4-0.3-2.5-1-3.1c-0.7-0.7-1.9-1-3.5-1c-1.9,0-4,0-6.2,0c-2.3,0-4.6,0-7,0.1L539.6,187.8z"/>
	<path class="st3" d="M586,228.4c-2.9,0-5.4-0.2-7.3-0.7c-1.9-0.5-3.5-1.3-4.7-2.5c-1.2-1.2-2-2.7-2.5-4.5c-0.5-1.9-0.7-4.1-0.7-6.8
		v-2.7c0-2.7,0.3-5,0.8-6.9c0.5-1.9,1.4-3.4,2.5-4.6c1.1-1.2,2.5-2,4.3-2.6c1.7-0.5,3.8-0.8,6.1-0.8c1.5,0,2.9,0.2,4.3,0.5
		c1.3,0.3,2.4,0.8,3.1,1.3v-14h9.5v38.2c0,2.3-0.5,3.9-1.5,4.8c-1,0.9-2.8,1.3-5.3,1.3H586z M591.9,221v-11.1c0-1.3-0.1-2.3-0.3-3.1
		c-0.2-0.8-0.5-1.4-1-1.9c-0.5-0.5-1.1-0.8-1.8-0.9c-0.7-0.2-1.7-0.2-2.8-0.2c-1.2,0-2.1,0.1-2.8,0.3c-0.7,0.2-1.3,0.6-1.7,1.1
		c-0.4,0.5-0.7,1.2-0.9,2.1s-0.2,2.1-0.2,3.6v2.9c0,1.6,0.1,2.8,0.2,3.7c0.2,0.9,0.4,1.7,0.9,2.2c0.4,0.5,1,0.9,1.8,1.1
		c0.8,0.2,1.7,0.3,2.9,0.3H591.9z"/>
</g>
<g>
	<path class="st4" d="M260.2,192.2"/>
	<polygon class="st4" points="261.7,203.2 261.7,203.2 261.7,203.2 	"/>
	<polygon class="st5" points="252.3,199.2 245,212.6 267.7,207.9 266.7,196.3 	"/>
</g>
<polyline class="st6" points="312.3,382 272.6,452.8 337.9,439.9 "/>
<line class="st7" x1="313.9" y1="381.9" x2="339.3" y2="439.6"/>
<polyline class="st6" points="340.3,441.1 345.4,453 351.1,438.8 "/>
<polygon class="st6" points="274.7,453.9 344,453.7 338.6,441.4 "/>
<g>
	<path d="M366.7,438.1h-7v-31.4H381l-1.1,5.9h-13.2v6.6h12.6l-1.1,5.9h-11.5V438.1z"/>
	<path d="M383.6,406.6h6.7v31.5h-6.7V406.6z"/>
	<path d="M405,415.3c2,0,3.7,0.2,5,0.5c1.4,0.3,2.5,0.9,3.4,1.7c0.9,0.8,1.5,1.9,1.9,3.3c0.4,1.4,0.6,3.1,0.6,5.1v2.3
		c0,2-0.2,3.7-0.6,5c-0.4,1.4-1,2.4-1.9,3.3c-0.9,0.8-2,1.4-3.4,1.8c-1.4,0.4-3.1,0.5-5,0.5c-2,0-3.7-0.2-5-0.5
		c-1.4-0.4-2.5-0.9-3.4-1.8c-0.9-0.8-1.5-1.9-1.9-3.3c-0.4-1.4-0.6-3-0.6-5v-2.3c0-2,0.2-3.7,0.6-5.1c0.4-1.4,1-2.4,1.9-3.3
		c0.9-0.8,2-1.4,3.4-1.7C401.3,415.4,403,415.3,405,415.3z M409.1,425.6c0-1.1-0.1-2-0.2-2.7c-0.1-0.7-0.3-1.2-0.6-1.5
		c-0.3-0.4-0.7-0.6-1.3-0.7c-0.5-0.1-1.2-0.2-2-0.2c-0.8,0-1.5,0.1-2,0.2c-0.5,0.1-0.9,0.4-1.3,0.7c-0.3,0.4-0.5,0.9-0.7,1.5
		c-0.1,0.7-0.2,1.5-0.2,2.7v2.7c0,1.1,0.1,2,0.2,2.7c0.1,0.7,0.3,1.2,0.7,1.5c0.3,0.4,0.7,0.6,1.3,0.7c0.5,0.1,1.2,0.2,2,0.2
		c0.8,0,1.5-0.1,2-0.2c0.5-0.1,0.9-0.4,1.3-0.7s0.5-0.9,0.6-1.5c0.1-0.7,0.2-1.6,0.2-2.7V425.6z"/>
	<path d="M440.1,431.1l3.3-15.2h6.5l-6.4,22.2h-6.6l-3.3-14l-3.4,14h-6.7l-6.4-22.2h6.8l3.2,15.1l3.6-15.1h5.8L440.1,431.1z"/>
	<path d="M478.2,438.1h-16.5l1-5.2h4.4v-18.4h-5.4l1-5.2h11.2v23.6h5.3L478.2,438.1z"/>
	<path d="M490.8,427.7c-0.5,0.2-0.9,0.4-1.2,0.6s-0.6,0.5-0.7,0.8c-0.2,0.3-0.3,0.7-0.4,1.1c-0.1,0.4-0.1,1-0.1,1.5v0.8H502l-1,5.5
		h-19.3v-5c0-1.5,0.1-2.7,0.3-3.8c0.2-1.1,0.6-2,1.1-2.8c0.5-0.8,1.2-1.5,2-2.1c0.8-0.6,1.8-1.1,2.9-1.6l4.7-2c1-0.4,1.7-0.8,2-1.3
		c0.3-0.4,0.5-1.1,0.5-2c0-1-0.2-1.8-0.7-2.2c-0.5-0.4-1.3-0.6-2.5-0.6c-1.4,0-3,0-4.8,0c-1.8,0-3.5,0-5,0.1l0.9-5.4
		c1.4,0,3,0,4.7-0.1c1.7,0,3.3,0,4.8,0c3.3,0,5.7,0.6,7.2,1.9c1.4,1.3,2.2,3.1,2.2,5.5v0.7c0,2-0.4,3.6-1.3,4.9
		c-0.8,1.3-2.3,2.4-4.3,3.2L490.8,427.7z"/>
	<path d="M506,409.3c1.4,0,2.9,0,4.5-0.1c1.6,0,3.3,0,5.2,0c3,0,5.2,0.6,6.7,1.9c1.4,1.3,2.1,3,2.1,5.2v0.8c0,1.6-0.3,2.8-0.8,3.7
		c-0.6,0.9-1.4,1.6-2.6,2.2c1.4,0.5,2.4,1.3,3,2.3c0.7,1,1,2.3,1,4v0.9c0,2.6-0.8,4.6-2.5,5.9c-1.7,1.3-4.3,2-8,2
		c-1.8,0-3.5,0-5.2,0c-1.7,0-3.4,0-5.1-0.1l1-5.3c1.2,0,2.7,0,4.3,0.1c1.6,0,3.3,0,5.1,0c1.2,0,2.1-0.2,2.6-0.7
		c0.5-0.5,0.8-1.2,0.8-2.3v-0.6c0-1.1-0.3-1.9-0.8-2.4c-0.6-0.5-1.5-0.7-2.8-0.7h-8l1-5.2h6.9c2.1,0,3.2-0.9,3.2-2.7v-0.7
		c0-1-0.2-1.8-0.7-2.2c-0.5-0.5-1.3-0.7-2.5-0.7c-1.3,0-2.8,0-4.4,0s-3.3,0-5,0L506,409.3z"/>
	<path d="M539,438.1c-2.1,0-3.8-0.2-5.2-0.5c-1.4-0.4-2.5-0.9-3.3-1.8c-0.8-0.8-1.4-1.9-1.8-3.2c-0.3-1.3-0.5-2.9-0.5-4.9v-2
		c0-1.9,0.2-3.6,0.6-4.9c0.4-1.3,1-2.4,1.8-3.3c0.8-0.8,1.8-1.4,3-1.8s2.7-0.6,4.3-0.6c1.1,0,2.1,0.1,3,0.3c0.9,0.2,1.7,0.5,2.2,0.9
		v-9.9h6.7v27.2c0,1.6-0.4,2.8-1.1,3.4c-0.7,0.6-2,1-3.8,1H539z M543.2,432.8v-7.9c0-0.9-0.1-1.6-0.2-2.2c-0.1-0.6-0.4-1-0.7-1.3
		c-0.3-0.3-0.8-0.5-1.3-0.7c-0.5-0.1-1.2-0.2-2-0.2c-0.8,0-1.5,0.1-2,0.2c-0.5,0.1-0.9,0.4-1.2,0.8c-0.3,0.4-0.5,0.9-0.6,1.5
		c-0.1,0.7-0.2,1.5-0.2,2.5v2c0,1.1,0.1,2,0.2,2.7c0.1,0.7,0.3,1.2,0.6,1.6c0.3,0.4,0.7,0.6,1.3,0.8c0.5,0.1,1.2,0.2,2,0.2H543.2z"
		/>
</g>
<g>
	<polygon class="st5" points="300.6,437 300.6,437 300.6,437 	"/>
	<polygon class="st5" points="292.9,433.6 287.7,443.3 314.1,438 313.3,429.6 	"/>
</g>
<g>
	<polygon class="st5" points="310.9,400.4 305,411.4 311.7,410 311,401.3 	"/>
</g>
<polygon class="st6" points="339.6,439.6 350.9,437.3 313.8,381.4 "/>
<g>
	<path d="M366.7,438.1h-7v-31.4H381l-1.1,5.9h-13.2v6.6h12.6l-1.1,5.9h-11.5V438.1z"/>
	<path d="M383.6,406.6h6.7v31.5h-6.7V406.6z"/>
	<path d="M405,415.3c2,0,3.7,0.2,5,0.5c1.4,0.3,2.5,0.9,3.4,1.7c0.9,0.8,1.5,1.9,1.9,3.3c0.4,1.4,0.6,3.1,0.6,5.1v2.3
		c0,2-0.2,3.7-0.6,5c-0.4,1.4-1,2.4-1.9,3.3c-0.9,0.8-2,1.4-3.4,1.8c-1.4,0.4-3.1,0.5-5,0.5c-2,0-3.7-0.2-5-0.5
		c-1.4-0.4-2.5-0.9-3.4-1.8c-0.9-0.8-1.5-1.9-1.9-3.3c-0.4-1.4-0.6-3-0.6-5v-2.3c0-2,0.2-3.7,0.6-5.1c0.4-1.4,1-2.4,1.9-3.3
		c0.9-0.8,2-1.4,3.4-1.7C401.3,415.4,403,415.3,405,415.3z M409.1,425.6c0-1.1-0.1-2-0.2-2.7c-0.1-0.7-0.3-1.2-0.6-1.5
		c-0.3-0.4-0.7-0.6-1.3-0.7c-0.5-0.1-1.2-0.2-2-0.2c-0.8,0-1.5,0.1-2,0.2c-0.5,0.1-0.9,0.4-1.3,0.7c-0.3,0.4-0.5,0.9-0.7,1.5
		c-0.1,0.7-0.2,1.5-0.2,2.7v2.7c0,1.1,0.1,2,0.2,2.7c0.1,0.7,0.3,1.2,0.7,1.5c0.3,0.4,0.7,0.6,1.3,0.7c0.5,0.1,1.2,0.2,2,0.2
		c0.8,0,1.5-0.1,2-0.2c0.5-0.1,0.9-0.4,1.3-0.7s0.5-0.9,0.6-1.5c0.1-0.7,0.2-1.6,0.2-2.7V425.6z"/>
	<path d="M440.1,431.1l3.3-15.2h6.5l-6.4,22.2h-6.6l-3.3-14l-3.4,14h-6.7l-6.4-22.2h6.8l3.2,15.1l3.6-15.1h5.8L440.1,431.1z"/>
	<path d="M478.2,438.1h-16.5l1-5.2h4.4v-18.4h-5.4l1-5.2h11.2v23.6h5.3L478.2,438.1z"/>
	<path d="M490.8,427.7c-0.5,0.2-0.9,0.4-1.2,0.6s-0.6,0.5-0.7,0.8c-0.2,0.3-0.3,0.7-0.4,1.1c-0.1,0.4-0.1,1-0.1,1.5v0.8H502l-1,5.5
		h-19.3v-5c0-1.5,0.1-2.7,0.3-3.8c0.2-1.1,0.6-2,1.1-2.8c0.5-0.8,1.2-1.5,2-2.1c0.8-0.6,1.8-1.1,2.9-1.6l4.7-2c1-0.4,1.7-0.8,2-1.3
		c0.3-0.4,0.5-1.1,0.5-2c0-1-0.2-1.8-0.7-2.2c-0.5-0.4-1.3-0.6-2.5-0.6c-1.4,0-3,0-4.8,0c-1.8,0-3.5,0-5,0.1l0.9-5.4
		c1.4,0,3,0,4.7-0.1c1.7,0,3.3,0,4.8,0c3.3,0,5.7,0.6,7.2,1.9c1.4,1.3,2.2,3.1,2.2,5.5v0.7c0,2-0.4,3.6-1.3,4.9
		c-0.8,1.3-2.3,2.4-4.3,3.2L490.8,427.7z"/>
	<path d="M506,409.3c1.4,0,2.9,0,4.5-0.1c1.6,0,3.3,0,5.2,0c3,0,5.2,0.6,6.7,1.9c1.4,1.3,2.1,3,2.1,5.2v0.8c0,1.6-0.3,2.8-0.8,3.7
		c-0.6,0.9-1.4,1.6-2.6,2.2c1.4,0.5,2.4,1.3,3,2.3c0.7,1,1,2.3,1,4v0.9c0,2.6-0.8,4.6-2.5,5.9c-1.7,1.3-4.3,2-8,2
		c-1.8,0-3.5,0-5.2,0c-1.7,0-3.4,0-5.1-0.1l1-5.3c1.2,0,2.7,0,4.3,0.1c1.6,0,3.3,0,5.1,0c1.2,0,2.1-0.2,2.6-0.7
		c0.5-0.5,0.8-1.2,0.8-2.3v-0.6c0-1.1-0.3-1.9-0.8-2.4c-0.6-0.5-1.5-0.7-2.8-0.7h-8l1-5.2h6.9c2.1,0,3.2-0.9,3.2-2.7v-0.7
		c0-1-0.2-1.8-0.7-2.2c-0.5-0.5-1.3-0.7-2.5-0.7c-1.3,0-2.8,0-4.4,0s-3.3,0-5,0L506,409.3z"/>
	<path d="M539,438.1c-2.1,0-3.8-0.2-5.2-0.5c-1.4-0.4-2.5-0.9-3.3-1.8c-0.8-0.8-1.4-1.9-1.8-3.2c-0.3-1.3-0.5-2.9-0.5-4.9v-2
		c0-1.9,0.2-3.6,0.6-4.9c0.4-1.3,1-2.4,1.8-3.3c0.8-0.8,1.8-1.4,3-1.8s2.7-0.6,4.3-0.6c1.1,0,2.1,0.1,3,0.3c0.9,0.2,1.7,0.5,2.2,0.9
		v-9.9h6.7v27.2c0,1.6-0.4,2.8-1.1,3.4c-0.7,0.6-2,1-3.8,1H539z M543.2,432.8v-7.9c0-0.9-0.1-1.6-0.2-2.2c-0.1-0.6-0.4-1-0.7-1.3
		c-0.3-0.3-0.8-0.5-1.3-0.7c-0.5-0.1-1.2-0.2-2-0.2c-0.8,0-1.5,0.1-2,0.2c-0.5,0.1-0.9,0.4-1.2,0.8c-0.3,0.4-0.5,0.9-0.6,1.5
		c-0.1,0.7-0.2,1.5-0.2,2.5v2c0,1.1,0.1,2,0.2,2.7c0.1,0.7,0.3,1.2,0.6,1.6c0.3,0.4,0.7,0.6,1.3,0.8c0.5,0.1,1.2,0.2,2,0.2H543.2z"
		/>
</g>
<g>
	<path class="st5" d="M307.5,412.3"/>
	<polygon class="st5" points="308.5,420.2 308.5,420.2 308.5,420.2 	"/>
	<polygon class="st5" points="301.8,417.4 296.7,426.9 312.8,423.5 312.1,415.3 	"/>
</g>
</svg>
