// Gmsh project created on Fri Mar 21 11:05:07 2014
ref = 2.0;
Point(1) = {0, 0, 0, ref};
Point(2) = {1, 0, 0, ref};
Point(3) = {0, 1, 0, ref};
Point(4) = {0, 0, 2, ref};
Point(5) = {1, 0, 2, ref};
Point(6) = {0, 1, 2, ref};
Line(10) = {1, 2};
Line(20) = {2, 3};
Line(30) = {3, 1};
Line(40) = {4, 5};
Line(50) = {5, 6};
Line(60) = {6, 4};
Line(70) = {1, 4};
Line(80) = {2, 5};
Line(90) = {3, 6};
Line Loop(100) = {10, 20, 30};
Plane Surface(101) = {100};
Line Loop(102) = {50, 60, 40};
Plane Surface(103) = {102};
Line Loop(104) = {70, 40, -80, -10};
Plane Surface(105) = {104};
Line Loop(106) = {20, 90, -50, -80};
Plane Surface(107) = {106};
Line Loop(108) = {60, -70, -30, 90};
Plane Surface(109) = {108};
Surface Loop(200) = {107, 101, 105, 109, 103};
Volume(201) = {200};
Physical Surface(".back") = {101};
Physical Surface(".front") = {103};
Physical Surface(".down") = {105};
Physical Surface(".up") = {107};
Physical Surface(".left") = {109};
Physical Volume("volume") = {201};
